{
  "asset": {
    "version": "2.0",
    "generator": "3dpea GLTFExporter"
  },
  "scenes": [
    {
      "name": "AuxScene",
      "nodes": [
        3
      ]
    }
  ],
  "scene": 0,
  "nodes": [
    {
      "name": "ballet_1",
      "mesh": 0
    },
    {
      "name": "ballet_1_1",
      "mesh": 1
    },
    {
      "matrix": [
        0.0017217759741470218,
        0,
        0,
        0,
        0,
        -5.216056073522216e-10,
        0.001721775915213092,
        0,
        0,
        -0.001721775915213092,
        -5.216056073522216e-10,
        0,
        0,
        0,
        0,
        1
      ],
      "name": "mannequin",
      "extras": {
        "name": "mannequin"
      },
      "children": [
        0,
        1
      ]
    },
    {
      "name": "stand",
      "children": [
        2
      ]
    }
  ],
  "bufferViews": [
    {
      "buffer": 0,
      "byteOffset": 0,
      "byteLength": 15864,
      "target": 34962,
      "byteStride": 12
    },
    {
      "buffer": 0,
      "byteOffset": 15864,
      "byteLength": 15864,
      "target": 34962,
      "byteStride": 12
    },
    {
      "buffer": 0,
      "byteOffset": 31728,
      "byteLength": 10576,
      "target": 34962,
      "byteStride": 8
    },
    {
      "buffer": 0,
      "byteOffset": 42304,
      "byteLength": 12648,
      "target": 34963
    },
    {
      "buffer": 0,
      "byteOffset": 54952,
      "byteLength": 29592,
      "target": 34962,
      "byteStride": 12
    },
    {
      "buffer": 0,
      "byteOffset": 84544,
      "byteLength": 29592,
      "target": 34962,
      "byteStride": 12
    },
    {
      "buffer": 0,
      "byteOffset": 114136,
      "byteLength": 19728,
      "target": 34962,
      "byteStride": 8
    },
    {
      "buffer": 0,
      "byteOffset": 133864,
      "byteLength": 29520,
      "target": 34963
    }
  ],
  "buffers": [
    {
      "byteLength": 163384,
      "uri": "data:application/octet-stream;base64,"
    }
  ],
  "accessors": [
    {
      "bufferView": 0,
      "componentType": 5126,
      "count": 1322,
      "max": [
        169.5169677734375,
        127.51551055908203,
        -934.3447265625
      ],
      "min": [
        -169.5169677734375,
        -118.9044418334961,
        -1641.4464111328125
      ],
      "type": "VEC3"
    },
    {
      "bufferView": 1,
      "componentType": 5126,
      "count": 1322,
      "max": [
        0.9999935626983643,
        0.9998661279678345,
        0.9999903440475464
      ],
      "min": [
        -0.9993869066238403,
        -0.9992803335189819,
        -0.9423363208770752
      ],
      "type": "VEC3"
    },
    {
      "bufferView": 2,
      "componentType": 5126,
      "count": 1322,
      "max": [
        0.9523270130157471,
        1
      ],
      "min": [
        0,
        0.03034186363220215
      ],
      "type": "VEC2"
    },
    {
      "bufferView": 3,
      "componentType": 5123,
      "count": 6324,
      "max": [
        1321
      ],
      "min": [
        0
      ],
      "type": "SCALAR"
    },
    {
      "bufferView": 4,
      "componentType": 5126,
      "count": 2466,
      "max": [
        131.4180908203125,
        188.62432861328125,
        0.22789056599140167
      ],
      "min": [
        -159.784912109375,
        -102.57846069335938,
        -935.9804077148438
      ],
      "type": "VEC3"
    },
    {
      "bufferView": 5,
      "componentType": 5126,
      "count": 2466,
      "max": [
        0.9992116689682007,
        0.9992116689682007,
        1
      ],
      "min": [
        -0.9992116689682007,
        -0.9992116689682007,
        -1
      ],
      "type": "VEC3"
    },
    {
      "bufferView": 6,
      "componentType": 5126,
      "count": 2466,
      "max": [
        0,
        1
      ],
      "min": [
        0,
        1
      ],
      "type": "VEC2"
    },
    {
      "bufferView": 7,
      "componentType": 5123,
      "count": 14760,
      "max": [
        2465
      ],
      "min": [
        0
      ],
      "type": "SCALAR"
    }
  ],
  "materials": [
    {
      "pbrMetallicRoughness": {
        "metallicFactor": 1,
        "roughnessFactor": 1
      },
      "doubleSided": true,
      "name": "Material.001"
    },
    {
      "pbrMetallicRoughness": {
        "metallicFactor": 1,
        "roughnessFactor": 1
      },
      "doubleSided": true,
      "name": "Material.004"
    }
  ],
  "meshes": [
    {
      "primitives": [
        {
          "mode": 4,
          "attributes": {
            "POSITION": 0,
            "NORMAL": 1,
            "TEXCOORD_0": 2
          },
          "indices": 3,
          "material": 0
        }
      ]
    },
    {
      "primitives": [
        {
          "mode": 4,
          "attributes": {
            "POSITION": 4,
            "NORMAL": 5,
            "TEXCOORD_0": 6
          },
          "indices": 7,
          "material": 1
        }
      ]
    }
  ]
}